<svg height="512pt" viewBox="0 0 512.00203 512" width="512pt" xmlns="http://www.w3.org/2000/svg"><path d="m193.792969 335.269531c-2.453125-2.421875-6.121094-3.128906-9.300781-1.792969-2.140626.78125-3.824219 2.46875-4.609376 4.609376-.433593 1.023437-.667968 2.125-.679687 3.242187.03125 2.257813.914063 4.421875 2.472656 6.058594.832031.75 1.785157 1.355469 2.816407 1.789062 1.027343.4375 2.128906.671875 3.242187.683594 2.269531.023437 4.453125-.867187 6.058594-2.472656s2.5-3.789063 2.476562-6.058594c.027344-1.121094-.207031-2.230469-.683593-3.242187-.433594-1.035157-1.039063-1.988282-1.792969-2.816407zm0 0"/><path d="m193.792969 369.394531c-2.453125-2.421875-6.121094-3.128906-9.300781-1.792969-2.140626.78125-3.824219 2.46875-4.609376 4.609376-.433593 1.023437-.667968 2.125-.679687 3.242187.03125 2.257813.914063 4.421875 2.472656 6.058594.832031.75 1.785157 1.359375 2.816407 1.792969 1.027343.4375 2.128906.667968 3.242187.679687 2.269531.023437 4.453125-.867187 6.058594-2.472656s2.5-3.789063 2.476562-6.058594c.027344-1.121094-.207031-2.230469-.683593-3.242187-.433594-1.035157-1.039063-1.988282-1.792969-2.816407zm0 0"/><path d="m193.792969 403.527344c-2.453125-2.421875-6.121094-3.128906-9.300781-1.792969-2.140626.785156-3.824219 2.46875-4.609376 4.609375-.433593 1.023438-.667968 2.125-.679687 3.242188.03125 2.257812.914063 4.421874 2.472656 6.058593.832031.753907 1.785157 1.359375 2.816407 1.792969 1.027343.4375 2.128906.667969 3.242187.679688 2.269531.023437 4.453125-.867188 6.058594-2.472657s2.5-3.789062 2.476562-6.058593c.027344-1.121094-.207031-2.230469-.683593-3.242188-.433594-1.035156-1.039063-1.984375-1.792969-2.816406zm0 0"/><path d="m193.792969 437.660156c-2.453125-2.421875-6.121094-3.128906-9.300781-1.792968-2.140626.785156-3.824219 2.46875-4.609376 4.609374-.433593 1.027344-.667968 2.128907-.679687 3.242188.03125 2.257812.914063 4.421875 2.472656 6.058594.832031.753906 1.785157 1.359375 2.816407 1.792968 1.027343.4375 2.128906.667969 3.242187.683594 2.269531.019532 4.453125-.871094 6.058594-2.476562 1.605469-1.605469 2.5-3.789063 2.476562-6.058594.027344-1.121094-.207031-2.230469-.683593-3.242188-.433594-1.035156-1.039063-1.984374-1.792969-2.816406zm0 0"/><path d="m227.925781 343.792969c-2.453125-2.421875-6.121093-3.128907-9.300781-1.792969-2.136719.785156-3.824219 2.46875-4.605469 4.609375-.4375 1.027344-.671875 2.128906-.683593 3.242187.03125 2.261719.914062 4.421876 2.472656 6.058594.832031.753906 1.785156 1.359375 2.816406 1.792969 1.027344.4375 2.128906.667969 3.242188.683594 2.273437.023437 4.457031-.871094 6.0625-2.476563 1.605468-1.605468 2.496093-3.789062 2.472656-6.058594.027344-1.117187-.203125-2.230468-.683594-3.242187-.433594-1.03125-1.039062-1.984375-1.792969-2.816406zm0 0"/><path d="m227.925781 377.917969c-2.453125-2.421875-6.121093-3.128907-9.300781-1.796875-2.136719.785156-3.824219 2.472656-4.605469 4.609375-.4375 1.027343-.671875 2.128906-.683593 3.242187.03125 2.261719.914062 4.425782 2.472656 6.058594.832031.753906 1.785156 1.359375 2.816406 1.792969 1.027344.4375 2.128906.667969 3.242188.683593 2.273437.023438 4.457031-.871093 6.0625-2.476562 1.605468-1.601562 2.496093-3.789062 2.472656-6.058594.027344-1.117187-.203125-2.230468-.683594-3.242187-.433594-1.03125-1.039062-1.980469-1.792969-2.8125zm0 0"/><path d="m227.925781 412.050781c-2.453125-2.421875-6.121093-3.128906-9.300781-1.792969-2.136719.78125-3.824219 2.46875-4.605469 4.605469-.4375 1.027344-.671875 2.128907-.683593 3.242188.03125 2.261719.914062 4.425781 2.472656 6.058593.832031.753907 1.785156 1.359376 2.816406 1.792969 1.027344.4375 2.128906.667969 3.242188.683594 2.273437.023437 4.457031-.867187 6.0625-2.472656 1.605468-1.605469 2.496093-3.789063 2.472656-6.0625.027344-1.117188-.203125-2.230469-.683594-3.242188-.433594-1.03125-1.039062-1.980469-1.792969-2.8125zm0 0"/><path d="m227.925781 446.1875c-2.453125-2.425781-6.121093-3.132812-9.300781-1.796875-2.136719.78125-3.824219 2.46875-4.605469 4.605469-.4375 1.027344-.671875 2.128906-.683593 3.246094.03125 2.257812.914062 4.421874 2.472656 6.058593.832031.75 1.785156 1.355469 2.816406 1.789063 1.027344.4375 2.128906.671875 3.242188.683594 2.273437.023437 4.457031-.867188 6.0625-2.472657 1.605468-1.605469 2.496093-3.789062 2.472656-6.058593.027344-1.121094-.203125-2.230469-.683594-3.246094-.433594-1.03125-1.039062-1.980469-1.792969-2.808594zm0 0"/><path d="m262.058594 343.816406c-2.453125-2.421875-6.121094-3.128906-9.300782-1.789062-2.136718.78125-3.824218 2.46875-4.605468 4.605468-.4375 1.027344-.671875 2.128907-.683594 3.242188.03125 2.261719.917969 4.425781 2.472656 6.058594.832032.753906 1.785156 1.359375 2.816406 1.792968 1.027344.4375 2.128907.667969 3.242188.683594 2.273438.023438 4.457031-.871094 6.0625-2.472656 1.605469-1.605469 2.496094-3.792969 2.472656-6.0625.03125-1.117188-.203125-2.230469-.683594-3.242188-.433593-1.03125-1.039062-1.984374-1.792968-2.816406zm0 0"/><path d="m262.058594 377.941406c-2.453125-2.421875-6.121094-3.128906-9.300782-1.792968-2.136718.785156-3.824218 2.46875-4.605468 4.609374-.4375 1.027344-.671875 2.128907-.683594 3.242188.03125 2.261719.917969 4.421875 2.472656 6.058594.832032.753906 1.785156 1.359375 2.816406 1.792968 1.027344.4375 2.128907.667969 3.242188.683594 2.273438.023438 4.457031-.871094 6.0625-2.476562 1.605469-1.601563 2.496094-3.789063 2.472656-6.058594.03125-1.117188-.203125-2.230469-.683594-3.242188-.433593-1.03125-1.039062-1.984374-1.792968-2.816406zm0 0"/><path d="m262.058594 412.074219c-2.453125-2.417969-6.121094-3.125-9.300782-1.789063-2.136718.78125-3.824218 2.46875-4.605468 4.605469-.4375 1.027344-.671875 2.128906-.683594 3.242187.03125 2.261719.917969 4.425782 2.472656 6.058594.832032.753906 1.785156 1.359375 2.816406 1.792969 1.027344.4375 2.128907.667969 3.242188.683594 2.273438.023437 4.457031-.867188 6.0625-2.472657 1.605469-1.605468 2.496094-3.789062 2.472656-6.0625.03125-1.117187-.203125-2.230468-.683594-3.242187-.433593-1.03125-1.039062-1.984375-1.792968-2.816406zm0 0"/><path d="m262.058594 446.210938c-2.453125-2.421876-6.121094-3.128907-9.300782-1.792969-2.136718.78125-3.824218 2.46875-4.605468 4.605469-.4375 1.027343-.671875 2.128906-.683594 3.246093.03125 2.257813.917969 4.421875 2.472656 6.058594.832032.75 1.785156 1.355469 2.816406 1.789063 1.027344.4375 2.128907.671874 3.242188.683593 2.273438.023438 4.457031-.867187 6.0625-2.472656s2.496094-3.789063 2.472656-6.058594c.03125-1.121093-.203125-2.230469-.683594-3.246093-.433593-1.03125-1.039062-1.984376-1.792968-2.8125zm0 0"/><path d="m296.195312 343.808594c-2.457031-2.421875-6.125-3.128906-9.304687-1.792969-2.136719.785156-3.824219 2.46875-4.605469 4.609375-.4375 1.027344-.667968 2.128906-.683594 3.242188.03125 2.257812.917969 4.421874 2.476563 6.058593.828125.753907 1.78125 1.359375 2.8125 1.792969 1.027344.4375 2.128906.667969 3.246094.683594 2.269531.023437 4.453125-.871094 6.058593-2.476563 1.605469-1.605469 2.496094-3.789062 2.472657-6.058593.03125-1.117188-.203125-2.230469-.683594-3.242188-.433594-1.03125-1.039063-1.984375-1.789063-2.816406zm0 0"/><path d="m296.195312 377.933594c-2.457031-2.421875-6.125-3.128906-9.304687-1.789063-2.136719.78125-3.824219 2.46875-4.605469 4.605469-.4375 1.027344-.667968 2.128906-.683594 3.242188.03125 2.261718.917969 4.425781 2.476563 6.058593.828125.753907 1.78125 1.359375 2.8125 1.792969 1.027344.4375 2.128906.667969 3.246094.683594 2.269531.023437 4.453125-.871094 6.058593-2.472656 1.605469-1.605469 2.496094-3.792969 2.472657-6.0625.03125-1.117188-.203125-2.230469-.683594-3.242188-.433594-1.03125-1.039063-1.984375-1.789063-2.816406zm0 0"/><path d="m296.195312 412.066406c-2.457031-2.417968-6.125-3.125-9.304687-1.789062-2.136719.78125-3.824219 2.46875-4.605469 4.605468-.4375 1.027344-.667968 2.128907-.683594 3.242188.03125 2.261719.917969 4.425781 2.476563 6.058594.828125.753906 1.78125 1.359375 2.8125 1.792968 1.027344.4375 2.128906.671876 3.246094.683594 2.269531.023438 4.453125-.867187 6.058593-2.472656 1.605469-1.605469 2.496094-3.789062 2.472657-6.0625.03125-1.117188-.203125-2.226562-.683594-3.242188-.433594-1.03125-1.039063-1.984374-1.789063-2.816406zm0 0"/><path d="m296.195312 446.203125c-2.457031-2.421875-6.125-3.128906-9.304687-1.792969-2.136719.78125-3.824219 2.46875-4.605469 4.605469-.4375 1.027344-.667968 2.128906-.683594 3.246094.03125 2.257812.917969 4.421875 2.476563 6.058593.828125.75 1.78125 1.355469 2.8125 1.789063 1.027344.4375 2.128906.671875 3.246094.683594 2.269531.023437 4.453125-.867188 6.058593-2.472657 1.605469-1.605468 2.496094-3.789062 2.472657-6.058593.03125-1.121094-.203125-2.230469-.683594-3.246094-.433594-1.03125-1.039063-1.984375-1.789063-2.8125zm0 0"/><path d="m330.328125 335.277344c-2.453125-2.421875-6.125-3.128906-9.300781-1.792969-2.140625.78125-3.828125 2.46875-4.609375 4.605469-.4375 1.027344-.667969 2.128906-.683594 3.246094.035156 2.257812.917969 4.421874 2.476563 6.058593.828124.75 1.78125 1.355469 2.816406 1.789063 1.023437.4375 2.125.671875 3.242187.683594 2.269531.023437 4.453125-.867188 6.058594-2.472657s2.496094-3.789062 2.472656-6.058593c.03125-1.121094-.203125-2.230469-.679687-3.246094-.4375-1.03125-1.042969-1.984375-1.792969-2.8125zm0 0"/><path d="m330.328125 369.402344c-2.453125-2.421875-6.125-3.128906-9.300781-1.792969-2.140625.78125-3.828125 2.46875-4.609375 4.609375-.4375 1.023438-.667969 2.125-.683594 3.242188.03125 2.257812.917969 4.421874 2.476563 6.058593.828124.75 1.78125 1.355469 2.816406 1.792969 1.023437.433594 2.125.667969 3.242187.679688 2.269531.023437 4.453125-.867188 6.058594-2.472657s2.496094-3.789062 2.472656-6.058593c.03125-1.121094-.203125-2.230469-.679687-3.242188-.4375-1.035156-1.042969-1.988281-1.792969-2.816406zm0 0"/><path d="m330.328125 403.535156c-2.453125-2.421875-6.125-3.128906-9.300781-1.792968-2.140625.785156-3.828125 2.46875-4.609375 4.609374-.4375 1.023438-.667969 2.125-.683594 3.242188.03125 2.257812.917969 4.421875 2.476563 6.058594.828124.75 1.78125 1.359375 2.816406 1.792968 1.023437.4375 2.125.667969 3.242187.679688 2.269531.023438 4.453125-.867188 6.058594-2.472656 1.605469-1.605469 2.496094-3.789063 2.472656-6.058594.03125-1.121094-.203125-2.230469-.679687-3.242188-.4375-1.035156-1.042969-1.984374-1.792969-2.816406zm0 0"/><path d="m330.328125 437.667969c-2.453125-2.421875-6.125-3.128907-9.300781-1.792969-2.140625.785156-3.828125 2.46875-4.609375 4.609375-.4375 1.027344-.667969 2.128906-.683594 3.242187.03125 2.257813.917969 4.421876 2.476563 6.058594.828124.753906 1.78125 1.359375 2.816406 1.792969 1.023437.4375 2.125.667969 3.242187.683594 2.269531.019531 4.453125-.871094 6.058594-2.476563 1.605469-1.605468 2.496094-3.789062 2.472656-6.058594.03125-1.121093-.203125-2.230468-.679687-3.242187-.4375-1.035156-1.042969-1.984375-1.792969-2.816406zm0 0"/><path d="m145.070312 51.199219v409.601562c0 29.183594 47.691407 51.199219 110.929688 51.199219 63.242188 0 110.933594-22.015625 110.933594-51.199219v-409.601562c0-29.183594-47.691406-51.199219-110.933594-51.199219-63.238281 0-110.929688 22.015625-110.929688 51.199219zm204.796876 51.203125c0 16.109375-40.140626 34.132812-93.867188 34.132812-53.722656 0-93.863281-18.023437-93.863281-34.132812v-23.230469c19.296875 14.167969 53.351562 23.230469 93.863281 23.230469 40.515625 0 74.570312-9.0625 93.867188-23.230469zm-93.867188 392.53125c-53.722656 0-93.863281-18.019532-93.863281-34.132813v-330.425781c19.296875 14.164062 53.351562 23.226562 93.863281 23.226562 40.515625 0 74.570312-9.0625 93.867188-23.226562v330.425781c0 16.113281-40.140626 34.132813-93.867188 34.132813zm93.867188-443.734375c0 16.113281-40.140626 34.136719-93.867188 34.136719-53.722656 0-93.863281-18.023438-93.863281-34.136719 0-16.109375 40.140625-34.132813 93.863281-34.132813 53.726562 0 93.867188 18.023438 93.867188 34.132813zm0 0"/><path d="m196.269531 42.667969h-8.535156c-4.710937 0-8.53125 3.820312-8.53125 8.53125 0 4.714843 3.820313 8.535156 8.53125 8.535156h8.535156c4.710938 0 8.53125-3.820313 8.53125-8.535156 0-4.710938-3.820312-8.53125-8.53125-8.53125zm0 0"/><path d="m315.734375 59.734375h8.535156c4.710938 0 8.53125-3.820313 8.53125-8.535156 0-4.710938-3.820312-8.53125-8.53125-8.53125h-8.535156c-4.710937 0-8.53125 3.820312-8.53125 8.53125 0 4.714843 3.820313 8.535156 8.53125 8.535156zm0 0"/><path d="m238.933594 34.132812c0 4.714844 3.820312 8.535157 8.535156 8.535157h17.066406c4.710938 0 8.535156-3.820313 8.535156-8.535157 0-4.710937-3.824218-8.53125-8.535156-8.53125h-17.066406c-4.714844 0-8.535156 3.820313-8.535156 8.53125zm0 0"/><path d="m264.535156 59.734375h-17.066406c-4.714844 0-8.535156 3.820313-8.535156 8.535156 0 4.710938 3.820312 8.53125 8.535156 8.53125h17.066406c4.710938 0 8.535156-3.820312 8.535156-8.53125 0-4.714843-3.824218-8.535156-8.535156-8.535156zm0 0"/><path d="m256 264.535156c14.132812-.015625 25.585938-11.46875 25.601562-25.601562v-42.664063c0-14.140625-11.460937-25.601562-25.601562-25.601562-14.136719 0-25.597656 11.460937-25.597656 25.601562v42.664063c.015625 14.132812 11.46875 25.585937 25.597656 25.601562zm-8.53125-68.265625c0-4.714843 3.820312-8.535156 8.53125-8.535156 4.714844 0 8.535156 3.820313 8.535156 8.535156v42.664063c0 4.714844-3.820312 8.535156-8.535156 8.535156-4.710938 0-8.53125-3.820312-8.53125-8.535156zm0 0"/><path d="m298.667969 221.867188c-4.710938 0-8.53125 3.820312-8.53125 8.535156v8.53125c0 18.851562-15.285157 34.132812-34.136719 34.132812-18.847656 0-34.132812-15.28125-34.132812-34.132812v-8.53125c0-4.714844-3.820313-8.535156-8.53125-8.535156-4.714844 0-8.535157 3.820312-8.535157 8.535156v8.53125c.042969 24.960937 18.0625 46.257812 42.667969 50.433594v17.832031h-8.535156c-4.710938 0-8.53125 3.824219-8.53125 8.535156s3.820312 8.535156 8.53125 8.535156h34.136718c4.710938 0 8.53125-3.824219 8.53125-8.535156s-3.820312-8.535156-8.53125-8.535156h-8.535156v-17.832031c24.605469-4.175782 42.625-25.472657 42.667969-50.433594v-8.53125c0-4.714844-3.820313-8.535156-8.535156-8.535156zm0 0"/><path d="m46.335938 349.867188c3.507812 0 6.65625-2.140626 7.941406-5.402344 1.285156-3.261719.449218-6.976563-2.113282-9.367188-22.347656-20.226562-35.097656-48.957031-35.097656-79.097656 0-30.136719 12.75-58.871094 35.097656-79.09375 3.445313-3.21875 3.628907-8.617188.410157-12.0625-3.214844-3.445312-8.617188-3.632812-12.0625-.414062-25.800781 23.453124-40.511719 56.703124-40.511719 91.570312 0 34.871094 14.710938 68.121094 40.511719 91.570312 1.582031 1.480469 3.664062 2.300782 5.824219 2.296876zm0 0"/><path d="m76.539062 199.660156c3.445313-3.21875 3.628907-8.617187.414063-12.0625-3.21875-3.445312-8.617187-3.628906-12.0625-.414062-19.382813 17.632812-30.429687 42.617187-30.429687 68.816406 0 26.203125 11.046874 51.1875 30.429687 68.816406 2.226563 2.082032 5.398437 2.816406 8.3125 1.925782 2.917969-.886719 5.136719-3.265626 5.824219-6.238282.6875-2.96875-.257813-6.082031-2.488282-8.160156-15.925781-14.402344-25.011718-34.871094-25.011718-56.34375 0-21.46875 9.085937-41.9375 25.011718-56.339844zm0 0"/><path d="m95.09375 304.355469c3.503906 0 6.652344-2.144531 7.9375-5.40625 1.285156-3.257813.445312-6.972657-2.117188-9.367188-9.507812-8.574219-14.933593-20.777343-14.933593-33.582031 0-12.800781 5.425781-25.007812 14.933593-33.582031 3.347657-3.234375 3.484376-8.554688.308594-11.957031-3.175781-3.402344-8.492187-3.632813-11.949218-.519532-12.96875 11.804688-20.359376 28.527344-20.359376 46.058594 0 17.535156 7.390626 34.257812 20.359376 46.058594 1.578124 1.480468 3.660156 2.300781 5.820312 2.296875zm0 0"/><path d="m125.707031 233.109375c-3.21875-3.441406-8.617187-3.628906-12.0625-.414063-6.550781 5.980469-10.28125 14.4375-10.28125 23.304688s3.730469 17.328125 10.28125 23.304688c2.226563 2.082031 5.398438 2.816406 8.3125 1.925781 2.917969-.890625 5.136719-3.265625 5.824219-6.238281.691406-2.96875-.257812-6.082032-2.488281-8.164063-3.09375-2.746094-4.863281-6.6875-4.863281-10.828125 0-4.136719 1.769531-8.078125 4.863281-10.828125 3.445312-3.21875 3.628906-8.617187.414062-12.0625zm0 0"/><path d="m459.425781 164.84375c-3.214843 3.445312-3.03125 8.84375.414063 12.0625 22.347656 20.222656 35.09375 48.957031 35.09375 79.09375 0 30.140625-12.746094 58.871094-35.09375 79.097656-2.230469 2.078125-3.179688 5.191406-2.492188 8.164063.691406 2.96875 2.910156 5.347656 5.828125 6.234375 2.914063.890625 6.085938.15625 8.3125-1.925782 25.804688-23.449218 40.515625-56.699218 40.515625-91.570312 0-34.867188-14.710937-68.117188-40.515625-91.570312-1.652343-1.542969-3.855469-2.371094-6.117187-2.292969-2.261719.078125-4.398438 1.050781-5.945313 2.707031zm0 0"/><path d="m435.464844 312.34375c-3.445313 3.214844-3.628906 8.617188-.414063 12.0625 3.21875 3.445312 8.617188 3.628906 12.0625.410156 19.382813-17.628906 30.429688-42.613281 30.429688-68.816406 0-26.199219-11.046875-51.183594-30.429688-68.816406-3.445312-3.214844-8.84375-3.03125-12.0625.414062-3.214843 3.445313-3.03125 8.84375.414063 12.0625 15.925781 14.402344 25.011718 34.871094 25.011718 56.339844 0 21.472656-9.085937 41.941406-25.011718 56.34375zm0 0"/><path d="m410.671875 210.359375c-3.214844 3.445313-3.027344 8.84375.417969 12.058594 9.507812 8.574219 14.933594 20.78125 14.933594 33.582031 0 12.804688-5.425782 25.007812-14.933594 33.582031-2.292969 2.066407-3.292969 5.207031-2.613282 8.214844.675782 3.011719 2.925782 5.417969 5.878907 6.304687 2.957031.882813 6.15625.101563 8.375-2.042968 12.96875-11.800782 20.359375-28.523438 20.359375-46.058594 0-17.53125-7.390625-34.253906-20.359375-46.058594-1.652344-1.542968-3.851563-2.367187-6.113281-2.289062-2.261719.078125-4.402344 1.050781-5.945313 2.707031zm0 0"/><path d="m386.296875 278.890625c3.21875 3.445313 8.617187 3.628906 12.0625.414063 6.550781-5.976563 10.28125-14.4375 10.28125-23.304688s-3.730469-17.324219-10.28125-23.304688c-2.226563-2.078124-5.398437-2.8125-8.3125-1.925781-2.917969.890625-5.136719 3.269531-5.828125 6.238281-.6875 2.972657.261719 6.082032 2.492188 8.164063 3.09375 2.75 4.863281 6.691406 4.863281 10.828125 0 4.140625-1.769531 8.082031-4.863281 10.828125-3.445313 3.21875-3.628907 8.617187-.414063 12.0625zm0 0"/></svg>