<?xml version="1.0" encoding="iso-8859-1"?>
<!-- Generator: Adobe Illustrator 19.0.0, SVG Export Plug-In . SVG Version: 6.00 Build 0)  -->
<svg version="1.1" id="Capa_1" xmlns="http://www.w3.org/2000/svg" xmlns:xlink="http://www.w3.org/1999/xlink" x="0px" y="0px"
	 viewBox="0 0 512 512" style="enable-background:new 0 0 512 512;" xml:space="preserve">
<g>
	<g>
		<path d="M495.9,179.254l-43.633-34.717V59.65c-0.015-14.132-11.468-25.585-25.6-25.6H313.423L281.95,9.017
			c-15.255-11.914-36.662-11.911-51.913,0.009l-31.46,25.025H85.333c-14.132,0.015-25.585,11.468-25.6,25.6v84.887L16.1,179.254
			c-10.2,8.074-16.133,20.379-16.1,33.388V469.25c0.028,23.553,19.114,42.639,42.667,42.667h426.667
			c23.553-0.028,42.639-19.114,42.667-42.667V212.642C512.033,199.633,506.1,187.328,495.9,179.254z M452.267,166.35l33.008,26.263
			c1.249,1.03,2.399,2.176,3.432,3.422l-36.441,25.119V166.35z M240.65,22.392c9.007-7.069,21.677-7.073,30.687-0.009l14.667,11.667
			h-60.01L240.65,22.392z M76.8,59.65c0.006-4.71,3.823-8.527,8.533-8.533h341.333c4.71,0.006,8.527,3.823,8.533,8.533v173.268
			l-17.067,11.764V85.25c-0.009-9.422-7.645-17.057-17.067-17.067h-34.133c-9.422,0.009-17.057,7.645-17.067,17.067v170.667H332.8
			v-51.2c-0.009-9.422-7.645-17.057-17.067-17.067H281.6c-9.422,0.009-17.057,7.645-17.067,17.067v51.2h-17.067V93.783
			c-0.009-9.422-7.645-17.057-17.067-17.067h-34.133c-9.422,0.009-17.057,7.645-17.067,17.067v162.133h-17.067v-76.8
			c-0.009-9.422-7.645-17.057-17.067-17.067h-34.133c-9.422,0.009-17.057,7.645-17.067,17.067v65.555L76.8,232.909V59.65z
			 M377.076,272.983l-106.568,73.458c-8.713,6.117-20.326,6.112-29.033-0.012l-106.471-73.446H377.076z M110.933,255.917v-76.8
			h34.133v76.8H110.933z M196.267,255.917V93.783H230.4v162.133H196.267z M281.6,255.917v-51.2h34.133v51.2H281.6z M366.934,255.917
			V85.25h34.133v170.667H366.934z M26.725,192.613l33.008-26.263v54.798l-36.44-25.114
			C24.327,194.788,25.476,193.642,26.725,192.613z M17.067,469.25V212.642l0.018-0.161l46.348,31.953l39.196,27.008
			c0.252,0.177,0.515,0.339,0.788,0.483l85.064,58.681L20.279,481.409C18.201,477.692,17.096,473.509,17.067,469.25z
			 M469.334,494.85H42.667c-3.317-0.005-6.6-0.659-9.666-1.925l169.928-152.352l28.838,19.894
			c14.538,10.201,33.907,10.206,48.45,0.012l28.864-19.897l169.918,152.342C475.934,494.191,472.65,494.845,469.334,494.85z
			 M494.934,469.25c-0.029,4.259-1.134,8.442-3.212,12.159l-168.187-150.79L494.915,212.48l0.018,0.161V469.25z"/>
	</g>
</g>
<g>
</g>
<g>
</g>
<g>
</g>
<g>
</g>
<g>
</g>
<g>
</g>
<g>
</g>
<g>
</g>
<g>
</g>
<g>
</g>
<g>
</g>
<g>
</g>
<g>
</g>
<g>
</g>
<g>
</g>
</svg>
