<svg height="480pt" viewBox="0 0 480 480" width="480pt" xmlns="http://www.w3.org/2000/svg"><path d="m8 80h120v16c0 3.230469 1.953125 6.152344 4.9375 7.390625.992188.410156 2.03125.609375 3.0625.609375 2.078125 0 4.128906-.816406 5.65625-2.34375l21.65625-21.65625h20.6875c4.414062 0 8-3.585938 8-8v-64c0-4.414062-3.585938-8-8-8h-176c-4.414062 0-8 3.585938-8 8v64c0 4.414062 3.585938 8 8 8zm8-64h160v48h-16c-2.121094 0-4.160156.839844-5.65625 2.34375l-10.34375 10.34375v-4.6875c0-4.414062-3.585938-8-8-8h-120zm0 0"/><path d="m312 64h36.6875l21.65625 21.65625c1.527344 1.527344 3.578125 2.34375 5.65625 2.34375 1.03125 0 2.070312-.199219 3.0625-.609375 2.984375-1.238281 4.9375-4.160156 4.9375-7.390625v-16h40c4.414062 0 8-3.585938 8-8v-48c0-4.414062-3.585938-8-8-8h-112c-4.414062 0-8 3.585938-8 8v48c0 4.414062 3.585938 8 8 8zm8-48h96v32h-40c-4.414062 0-8 3.585938-8 8v4.6875l-10.34375-10.34375c-1.496094-1.503906-3.535156-2.34375-5.65625-2.34375h-32zm0 0"/><path d="m40 376v104h16v-104h64v96c0 4.414062 3.585938 8 8 8h48c4.414062 0 8-3.585938 8-8v-120c0-9.039062-3.128906-17.296875-8.207031-24h56.207031v136h-32v16h80v-16h-32v-136h56.015625c-5.023437 6.6875-8.015625 15-8.015625 24v120c0 4.414062 3.585938 8 8 8h48c4.414062 0 8-3.585938 8-8v-96h64v104h16v-104c22.054688 0 40-17.945312 40-40v-104c0-17.609375-11.511719-32.433594-27.351562-37.753906 11.832031-10.277344 19.351562-25.382813 19.351562-42.246094 0-30.878906-25.121094-56-56-56s-56 25.121094-56 56c0 16.863281 7.519531 31.96875 19.351562 42.246094-15.839843 5.320312-27.351562 20.144531-27.351562 37.753906v32h-64c-4.414062 0-8 3.585938-8 8v40h-76.894531l20.488281-61.472656-15.179688-5.0625-22.183593 66.535156h-72.253907l12.449219-56h41.574219c2.121094 0 4.160156-.839844 5.65625-2.34375l45.65625-45.65625h5.71875c-.679688 2.59375-1.03125 5.28125-1.03125 8 0 17.648438 14.351562 32 32 32s32-14.351562 32-32c0-2.71875-.351562-5.40625-1.03125-8h17.03125c4.414062 0 8-3.585938 8-8v-38.238281c0-3.167969-1.863281-6.035157-4.761719-7.3125-2.878906-1.273438-6.261719-.738281-8.613281 1.382812-2.960938 2.6875-6.738281 4.167969-10.625 4.167969-8.824219 0-16-7.175781-16-16s7.175781-16 16-16c3.886719 0 7.664062 1.480469 10.632812 4.167969 2.34375 2.128906 5.71875 2.65625 8.613282 1.382812 2.890625-1.277343 4.753906-4.152343 4.753906-7.3125v-38.238281c0-4.414062-3.585938-8-8-8h-17.03125c.679688-2.59375 1.03125-5.28125 1.03125-8 0-17.648438-14.351562-32-32-32s-32 14.351562-32 32c0 2.71875.351562 5.40625 1.03125 8h-17.03125c-4.414062 0-8 3.585938-8 8v52.6875l-51.3125 51.3125h-21.566406c10.398437-10.175781 16.878906-24.335938 16.878906-40 0-30.878906-25.121094-56-56-56s-56 25.121094-56 56c0 17.191406 7.800781 32.574219 20.03125 42.863281-12.527344 4.953125-22.128906 15.992188-24.679688 29.839844l-11.351562 58.074219v-66.777344h-16v120c0 22.054688 17.945312 40 40 40zm336-224c0-22.054688 17.945312-40 40-40s40 17.945312 40 40-17.945312 40-40 40-40-17.945312-40-40zm-80 128h64c4.414062 0 8-3.585938 8-8v-40c0-13.230469 10.769531-24 24-24h48c13.230469 0 24 10.769531 24 24v104c0 13.230469-10.769531 24-24 24h-88c-4.414062 0-8 3.585938-8 8v96h-32v-112c0-13.230469 10.769531-24 24-24h72c4.414062 0 8-3.585938 8-8v-72h-16v64h-104zm-80-184h22.238281c3.167969 0 6.035157-1.863281 7.3125-4.761719 1.289063-2.886719.746094-6.269531-1.382812-8.613281-2.6875-2.960938-4.167969-6.738281-4.167969-10.625 0-8.824219 7.175781-16 16-16s16 7.175781 16 16c0 3.886719-1.480469 7.664062-4.167969 10.632812-2.128906 2.34375-2.664062 5.71875-1.382812 8.613282 1.277343 2.890625 4.144531 4.753906 7.3125 4.753906h22.238281v17.03125c-2.59375-.679688-5.28125-1.03125-8-1.03125-17.648438 0-32 14.351562-32 32s14.351562 32 32 32c2.71875 0 5.40625-.351562 8-1.03125v17.03125h-22.238281c-3.167969 0-6.035157 1.863281-7.3125 4.761719-1.289063 2.894531-.738281 6.269531 1.382812 8.613281 2.6875 2.960938 4.167969 6.738281 4.167969 10.625 0 8.824219-7.175781 16-16 16s-16-7.175781-16-16c0-3.886719 1.480469-7.664062 4.167969-10.625 2.128906-2.34375 2.671875-5.71875 1.382812-8.613281-1.277343-2.898438-4.144531-4.761719-7.3125-4.761719h-2.925781l10.34375-10.34375c3.128906-3.128906 3.128906-8.183594 0-11.3125l-29.65625-29.65625zm-168 56c0-22.054688 17.945312-40 40-40s40 17.945312 40 40-17.945312 40-40 40-40-17.945312-40-40zm-25.273438 179.777344 20.335938-104.089844c2.105469-11.40625 12.058594-19.6875 23.65625-19.6875h85.28125c2.121094 0 4.160156-.839844 5.65625-2.34375l50.34375-50.34375 20.6875 20.6875-64 64h-44.6875c-3.753906 0-7 2.609375-7.808594 6.265625l-16 72c-.527344 2.367187.046875 4.847656 1.570313 6.734375 1.519531 1.894531 3.8125 3 6.238281 3h40c13.230469 0 24 10.769531 24 24v112h-32v-96c0-4.414062-3.585938-8-8-8h-81.679688c-7.121093 0-13.832031-3.144531-18.390624-8.625-4.585938-5.488281-6.464844-12.664062-5.203126-19.597656zm0 0"/><path d="m32 32h32v16h-32zm0 0"/><path d="m80 32h16v16h-16zm0 0"/><path d="m112 32h16v16h-16zm0 0"/><path d="m144 32h16v16h-16zm0 0"/></svg>