<?xml version="1.0" encoding="iso-8859-1"?>
<!-- Generator: Adobe Illustrator 19.0.0, SVG Export Plug-In . SVG Version: 6.00 Build 0)  -->
<svg version="1.1" id="Layer_1" xmlns="http://www.w3.org/2000/svg" xmlns:xlink="http://www.w3.org/1999/xlink" x="0px" y="0px"
	 viewBox="0 0 512 512" style="enable-background:new 0 0 512 512;" xml:space="preserve">
<g transform="translate(1 1)">
	<g>
		<g>
			<path d="M486.253,16.067H23.747C10.093,16.067-1,27.16-1,40.813v325.973c0,13.653,11.093,24.747,24.747,24.747h248.32V485.4
				c0,5.12,3.413,8.533,8.533,8.533s8.533-3.413,8.533-8.533v-93.867V357.4v-51.877c0.146-0.939,0.15-1.901,0-2.852v-30.604
				c0-9.387,3.413-17.92,8.533-25.6v42.667v8.533h8.533h51.2h8.533v-8.533v-42.667c5.12,7.68,8.533,16.213,8.533,25.6V357.4v34.133
				V485.4c0,5.12,3.413,8.533,8.533,8.533s8.533-3.413,8.533-8.533v-93.867h94.72c13.653,0,24.747-11.093,24.747-24.747V40.813
				C511,27.16,499.907,16.067,486.253,16.067z M391.533,307.901c2.823-2.843,5.548-5.685,7.68-8.528
				c2.56-3.413,1.707-9.387-1.707-11.947c-1.626-1.219-3.832-1.656-5.973-1.419V272.92v-0.853c0-19.987-9.738-39.225-26.406-49.995
				c-3.378-15.281-17.068-26.805-33.327-26.805c-16.319,0-30.053,11.609-33.367,26.975c-16.644,11.379-26.367,29.854-26.367,49.825
				v13.627c-1.863,0.063-3.71,0.675-5.12,1.733c-4.267,2.56-4.267,8.533-1.707,11.947c1.917,2.555,4.312,5.111,6.827,7.666v33.294
				H50.2V67.267h392.533v273.067h-51.2V307.901z M348.867,279.747h-34.133V229.4l0.291-3.055c1.452-7.94,8.433-14.011,16.776-14.011
				c8.767,0,16.041,6.701,16.964,15.233l0.019,0.18c0.053,0.545,0.084,1.096,0.084,1.654V279.747z M493.933,366.787
				c0,4.267-3.413,7.68-7.68,7.68h-94.72V357.4H459.8V50.2H33.133v307.2h238.933v17.067H23.747c-4.267,0-7.68-3.413-7.68-7.68
				V40.813c0-4.267,3.413-7.68,7.68-7.68h462.507c4.267,0,7.68,3.413,7.68,7.68V366.787z"/>
			<path d="M340.333,434.2c5.12,0,8.533-3.413,8.533-8.533s-3.413-8.533-8.533-8.533h-17.067c-5.12,0-8.533,3.413-8.533,8.533
				s3.413,8.533,8.533,8.533H340.333z"/>
			<path d="M348.867,451.267h-34.133c-5.12,0-8.533,3.413-8.533,8.533s3.413,8.533,8.533,8.533h34.133
				c5.12,0,8.533-3.413,8.533-8.533S353.987,451.267,348.867,451.267z"/>
			<path d="M266.947,191c-6.827,6.827-11.947,15.36-15.36,24.747c-1.707,4.267,0.853,9.387,5.12,11.093
				c1.707,0.853,2.56,0.853,3.413,0.853c3.413,0,6.827-2.56,7.68-5.12c2.56-7.68,6.827-14.507,11.947-20.48
				c3.413-3.413,2.56-8.533-0.853-11.947S270.36,187.587,266.947,191z"/>
			<path d="M264.387,246.467v-1.707c0-4.267-3.413-8.533-8.533-8.533c-4.267,0-8.533,4.267-8.533,8.533v1.707
				c0,9.387,0.853,18.773,4.267,27.307c0.853,3.413,4.267,5.973,7.68,5.973c0.853,0,1.707,0,3.413-0.853
				c4.267-1.707,6.827-6.827,5.12-11.093C265.24,260.973,264.387,254.147,264.387,246.467z"/>
			<path d="M317.293,161.987c-9.387,1.707-18.773,5.12-27.307,10.24c-4.267,2.56-5.973,7.68-3.413,11.947
				c1.707,2.56,5.12,4.267,7.68,4.267c0.853,0,2.56-0.853,4.267-1.707c6.827-3.413,14.507-5.973,22.187-7.68
				c4.267-0.853,7.68-5.973,6.827-10.24C326.68,164.547,322.413,161.133,317.293,161.987z"/>
			<path d="M403.48,227.693c0.853,0,2.56,0,3.413,0c4.267-1.707,6.827-6.827,5.12-11.093c-4.267-9.387-8.533-17.92-15.36-25.6
				c-3.413-3.413-8.533-4.267-11.947-0.853c-3.413,2.56-4.267,8.533-0.853,11.947c5.12,5.973,9.387,12.8,11.947,20.48
				C396.653,225.987,400.067,227.693,403.48,227.693z"/>
			<path d="M374.467,173.08c-8.533-5.12-17.92-8.533-27.307-10.24c-5.12-0.853-9.387,2.56-10.24,6.827
				c-0.853,5.12,2.56,9.387,6.827,10.24c7.68,0.853,15.36,3.413,22.187,7.68c1.707,0.853,2.56,0.853,4.267,0.853
				c2.56,0,5.12-1.707,7.68-3.413C379.587,180.76,378.733,175.64,374.467,173.08z"/>
			<path d="M408.6,236.227c-5.12,0-8.533,3.413-8.533,8.533v0.853c0,7.68-0.853,15.36-3.413,22.187
				c-1.707,5.12,0.853,9.387,5.12,11.093c0.853,0.853,1.707,0.853,2.56,0.853c3.413,0,6.827-2.56,8.533-5.973
				c2.56-8.533,4.267-17.92,4.267-27.307v-1.707C417.133,239.64,413.72,236.227,408.6,236.227z"/>
			<path d="M75.8,135.533c2.56,0,4.267-0.853,5.973-2.56l34.133-34.133c3.413-3.413,3.413-8.533,0-11.947s-8.533-3.413-11.947,0
				l-34.133,34.133c-3.413,3.413-3.413,8.533,0,11.947C71.533,134.68,73.24,135.533,75.8,135.533z"/>
			<path d="M75.8,178.2c2.56,0,4.267-0.853,5.973-2.56l17.067-17.067c3.413-3.413,3.413-8.533,0-11.947s-8.533-3.413-11.947,0
				l-17.067,17.067c-3.413,3.413-3.413,8.533,0,11.947C71.533,177.347,73.24,178.2,75.8,178.2z"/>
			<path d="M146.627,86.893l-25.6,25.6c-3.413,3.413-3.413,8.533,0,11.947c1.707,1.707,3.413,2.56,5.973,2.56
				s4.267-0.853,5.973-2.56l25.6-25.6c3.413-3.413,3.413-8.533,0-11.947S150.04,83.48,146.627,86.893z"/>
			<path d="M146.627,129.56l-76.8,76.8c-3.413,3.413-3.413,8.533,0,11.947c1.707,1.707,3.413,2.56,5.973,2.56
				s4.267-0.853,5.973-2.56l76.8-76.8c3.413-3.413,3.413-8.533,0-11.947S150.04,126.147,146.627,129.56z"/>
			<path d="M189.293,86.893l-8.533,8.533c-3.413,3.413-3.413,8.533,0,11.947c1.707,1.707,3.413,2.56,5.973,2.56
				s4.267-0.853,5.973-2.56l8.533-8.533c3.413-3.413,3.413-8.533,0-11.947S192.707,83.48,189.293,86.893z"/>
		</g>
	</g>
</g>
<g>
</g>
<g>
</g>
<g>
</g>
<g>
</g>
<g>
</g>
<g>
</g>
<g>
</g>
<g>
</g>
<g>
</g>
<g>
</g>
<g>
</g>
<g>
</g>
<g>
</g>
<g>
</g>
<g>
</g>
</svg>
